{"glyphs":{"0":{"ha":1014,"x_min":0,"x_max":0,"o":"m 28 521 b 507 -18 28 228 204 -18 b 986 521 810 -18 986 228 b 507 1060 986 814 810 1060 b 28 521 204 1060 28 814 z m 178 849 b 304 896 211 881 254 896 b 682 694 414 896 554 822 b 835 192 868 508 940 296 b 710 144 801 160 758 144 b 333 346 600 144 460 218 b 178 849 149 531 74 744 z "},"1":{"ha":521,"x_min":0,"x_max":0,"o":"m 190 642 b 414 1003 376 642 343 954 b 429 1008 419 1007 425 1008 b 447 983 440 1008 447 997 b 397 778 447 949 431 865 b 169 0 296 513 169 493 l 478 0 b 440 421 451 160 440 294 b 493 982 440 594 493 871 b 421 1060 493 1028 464 1060 b 228 928 358 1060 271 967 b 29 793 165 871 97 813 b 190 642 19 717 99 642 z "},"2":{"ha":843,"x_min":0,"x_max":0,"o":"m 225 -18 b 610 26 332 -18 478 26 b 790 -18 675 26 738 15 b 829 107 817 26 829 68 b 633 268 829 200 756 268 b 165 60 418 268 308 60 b 61 157 101 60 61 101 b 363 322 61 254 188 322 b 811 711 626 322 811 475 b 425 1060 811 928 657 1060 b 24 721 197 1060 24 935 b 229 486 24 576 103 486 b 372 706 379 486 422 611 b 261 667 336 679 297 667 b 107 814 176 667 107 733 b 321 990 107 910 204 990 b 567 699 472 990 567 851 b 338 403 567 568 499 460 b 14 161 239 368 24 324 b 225 -18 8 67 75 -18 z "},"3":{"ha":956,"x_min":0,"x_max":0,"o":"m 478 -18 b 928 333 771 -18 928 144 b 661 621 928 514 836 621 b 536 614 619 621 578 614 b 494 651 508 614 494 631 b 669 756 494 703 582 725 b 853 917 760 788 853 825 b 642 1060 853 1006 775 1060 b 296 1015 525 1060 408 1015 b 132 1060 239 1015 185 1026 b 93 935 106 1017 93 974 b 290 774 93 842 167 774 b 725 979 504 774 597 979 b 806 914 769 979 806 954 b 649 797 806 856 733 828 b 449 647 557 764 449 731 b 697 296 449 524 697 565 b 465 28 697 158 614 28 b 233 296 317 28 232 158 b 358 522 233 426 294 483 b 242 590 339 569 292 590 b 28 333 99 590 28 465 b 478 -18 28 144 185 -18 z "},"4":{"ha":900,"x_min":0,"x_max":0,"o":"m 200 199 l 572 199 b 550 0 572 133 564 68 l 811 0 b 789 186 799 64 790 125 b 888 172 832 182 867 176 l 888 275 b 790 258 867 268 832 263 b 811 422 793 311 800 367 l 550 422 b 572 246 563 361 569 304 l 239 246 b 153 308 193 246 153 264 b 268 418 153 335 167 367 b 389 479 269 419 343 457 b 756 885 650 606 756 732 b 603 1060 756 978 708 1060 b 507 1042 574 1060 544 1053 b 517 963 514 1017 517 990 b 179 563 517 747 335 675 b 14 349 97 503 14 428 b 200 199 14 290 39 199 z "},"5":{"ha":956,"x_min":0,"x_max":0,"o":"m 28 333 b 478 -18 28 144 185 -18 b 928 371 771 -18 928 144 b 551 713 928 586 783 713 b 339 694 464 713 400 694 b 188 836 238 694 188 742 b 300 979 188 922 231 979 b 714 774 432 979 500 774 b 872 1060 889 774 964 910 b 710 1015 819 1026 765 1015 b 376 1060 599 1015 483 1060 b 142 833 228 1060 142 975 b 372 643 142 710 207 653 b 697 335 589 631 697 535 b 465 29 697 158 614 29 b 233 296 317 29 232 158 b 358 522 233 426 294 483 b 242 590 339 569 292 590 b 28 333 99 590 28 465 z "},"6":{"ha":907,"x_min":0,"x_max":0,"o":"m 28 467 b 463 -18 28 175 203 -18 b 879 358 699 -18 879 142 b 481 713 879 563 717 713 b 96 482 279 713 153 604 b 83 468 90 471 88 468 b 75 485 79 468 75 471 b 124 663 75 546 93 607 b 472 840 185 774 310 840 b 781 696 607 840 726 794 b 871 842 842 713 871 783 b 561 1060 871 961 749 1060 b 28 467 257 1060 28 800 z m 358 592 b 629 335 493 592 629 500 b 376 78 629 193 529 78 b 104 333 240 78 104 168 b 358 592 104 476 206 592 z "},"7":{"ha":890,"x_min":0,"x_max":0,"o":"m 213 774 b 744 979 436 774 604 979 b 829 915 794 979 829 954 b 665 778 829 860 757 828 b 213 168 457 664 213 444 b 322 0 213 72 265 0 l 542 0 b 697 697 510 210 519 501 b 876 921 783 792 876 828 b 683 1060 876 1006 799 1060 b 271 1018 582 1060 426 1018 b 44 1060 193 1018 115 1028 b 14 947 25 1028 14 988 b 213 774 14 811 117 774 z "},"8":{"ha":958,"x_min":0,"x_max":0,"o":"m 28 313 b 479 -18 28 119 214 -18 b 931 318 746 -18 931 119 b 781 554 931 415 886 490 b 897 781 856 618 897 700 b 479 1061 897 944 724 1061 b 61 758 228 1061 61 940 b 168 571 61 683 89 625 b 28 313 86 504 28 421 z m 182 457 b 203 550 182 490 192 524 b 549 425 279 508 390 468 b 833 211 653 397 833 350 b 671 97 833 136 779 97 b 182 457 432 97 182 281 z m 288 947 b 774 650 497 947 774 779 b 743 575 774 625 763 600 b 479 671 676 610 589 640 b 151 858 328 713 151 747 b 288 947 151 915 196 947 z "},"9":{"ha":907,"x_min":0,"x_max":0,"o":"m 28 683 b 428 329 28 479 190 329 b 811 561 629 329 754 438 b 824 574 815 571 819 574 b 832 557 828 574 832 571 b 783 379 832 496 814 435 b 435 201 722 268 597 201 b 126 346 300 201 181 247 b 36 200 65 329 36 258 b 346 -18 36 81 158 -18 b 879 575 650 -18 879 242 b 444 1060 879 867 704 1060 b 28 683 208 1060 28 900 z m 278 707 b 531 965 278 850 378 965 b 803 708 667 965 803 874 b 549 450 803 565 701 450 b 278 707 414 450 278 542 z "},"\u0000":{"ha":0,"x_min":0,"x_max":0,"o":""},"\r":{"ha":347,"x_min":0,"x_max":0,"o":""}," ":{"ha":444,"x_min":0,"x_max":0,"o":""},"A":{"ha":1072,"x_min":0,"x_max":0,"o":"m 14 0 l 257 0 b 368 139 344 0 368 67 b 339 351 368 213 339 279 b 536 518 339 468 407 518 b 733 351 665 518 733 468 b 704 139 733 279 704 213 b 817 0 704 67 728 0 l 1058 0 b 856 596 997 46 883 482 b 804 1042 829 706 774 949 l 269 1042 b 217 596 300 949 243 706 b 14 0 189 482 76 46 z m 408 693 b 536 986 408 818 485 986 b 664 693 588 986 664 818 b 536 564 664 614 643 564 b 408 693 431 564 408 614 z "},"B":{"ha":953,"x_min":0,"x_max":0,"o":"m 118 521 b 35 0 118 364 90 208 l 599 0 b 925 249 756 0 925 65 b 590 551 925 415 786 532 b 349 571 510 560 428 554 b 289 614 313 578 289 590 b 329 644 289 638 313 644 b 590 601 372 644 450 601 b 861 808 679 601 861 619 b 440 1042 861 1028 614 1042 b 371 1042 415 1042 392 1042 l 35 1042 b 118 521 90 833 118 678 z m 429 514 b 653 282 582 492 653 414 b 464 43 653 132 563 43 b 290 379 304 43 290 297 b 383 518 290 482 313 518 b 429 514 396 518 413 517 z m 317 819 b 451 1000 317 908 367 1000 b 596 814 542 1000 596 904 b 458 667 596 735 554 667 b 317 819 360 667 317 739 z "},"C":{"ha":943,"x_min":0,"x_max":0,"o":"m 507 -18 b 929 297 781 -18 929 117 b 849 457 929 364 908 438 b 522 246 836 335 706 246 b 97 640 296 246 97 429 b 308 897 97 779 183 897 b 701 739 451 897 535 739 b 904 933 819 739 904 818 b 858 1060 904 982 889 1025 b 749 1026 821 1035 785 1026 b 494 1060 676 1026 600 1060 b 28 521 224 1060 28 833 b 507 -18 28 228 204 -18 z "},"D":{"ha":1035,"x_min":0,"x_max":0,"o":"m 35 1042 b 35 0 147 618 147 424 l 521 0 b 1007 521 835 0 1007 217 b 521 1042 1007 825 835 1042 z m 293 521 b 510 996 293 853 401 996 b 742 521 619 996 742 853 b 510 46 742 189 619 46 b 293 521 401 46 293 189 z "},"E":{"ha":872,"x_min":0,"x_max":0,"o":"m 35 1042 b 118 521 90 833 118 676 b 35 -1 118 363 90 207 l 847 -1 b 717 279 883 188 825 279 b 421 46 544 279 579 46 b 283 271 307 46 283 161 b 467 551 283 404 294 551 b 606 528 518 551 571 539 l 606 674 b 451 633 546 647 494 633 b 300 822 356 633 300 699 b 421 996 300 897 335 996 b 708 761 540 996 544 761 b 847 1042 868 761 867 985 z "},"F":{"ha":869,"x_min":0,"x_max":0,"o":"m 422 -1 b 283 350 356 74 283 214 b 467 553 283 404 294 553 b 606 528 518 553 571 539 l 606 674 b 451 633 546 647 494 633 b 300 822 356 633 300 699 b 421 996 300 897 335 996 b 708 761 540 996 544 761 b 847 1042 868 761 867 985 l 35 1042 b 118 521 90 833 118 678 b 35 -1 118 364 90 207 z "},"G":{"ha":951,"x_min":0,"x_max":0,"o":"m 531 -18 b 924 376 739 -18 924 163 b 646 682 924 535 822 682 b 404 453 479 682 404 563 b 507 282 404 376 443 304 b 688 428 535 357 588 428 b 849 278 782 428 849 364 b 672 125 849 186 775 125 b 147 729 431 125 147 461 b 289 911 147 846 201 911 b 710 739 433 911 546 739 b 904 933 819 739 904 818 b 858 1060 904 982 889 1025 b 494 1060 744 985 653 1060 b 28 521 224 1060 28 833 b 531 -18 28 199 229 -18 z "},"H":{"ha":1040,"x_min":0,"x_max":0,"o":"m 35 0 l 249 0 b 360 119 336 0 360 67 b 293 331 360 206 293 231 b 521 499 293 460 404 499 b 747 331 636 499 747 460 b 681 119 747 231 681 206 b 793 0 681 67 706 0 l 1006 0 b 924 521 951 210 924 365 b 1006 1042 924 678 951 833 l 793 1042 b 681 924 706 1042 681 975 b 747 711 681 838 747 813 b 521 546 747 582 636 546 b 293 711 404 546 293 582 b 360 924 293 813 360 838 b 249 1042 360 975 336 1042 l 35 1042 b 117 521 90 833 117 678 b 35 0 117 365 90 210 z "},"I":{"ha":406,"x_min":0,"x_max":0,"o":"m 35 1042 b 118 521 90 833 118 678 b 35 0 118 364 90 208 l 371 0 b 288 521 315 208 288 364 b 371 1042 288 678 315 833 z "},"J":{"ha":890,"x_min":0,"x_max":0,"o":"m 832 450 b 815 774 832 558 815 665 b 856 1042 815 850 819 935 l 53 1042 b 192 761 33 985 32 761 b 454 996 356 761 331 996 b 633 549 596 996 629 694 b 299 53 644 204 518 53 b 111 229 203 53 111 128 b 268 372 111 311 175 372 b 449 226 368 372 421 301 b 550 399 489 240 550 296 b 311 626 550 526 457 626 b 28 325 133 626 28 479 b 397 -18 28 107 189 -18 b 832 450 675 -18 832 151 z "},"K":{"ha":950,"x_min":0,"x_max":0,"o":"m 118 521 b 35 0 118 365 90 208 l 371 0 b 290 435 332 133 290 292 b 360 519 290 506 318 519 b 367 519 363 519 364 519 b 668 0 664 511 482 0 l 914 0 b 832 339 856 43 844 221 b 590 551 815 501 690 540 b 349 571 511 560 428 554 b 289 614 313 578 289 590 b 329 644 289 638 313 644 b 575 601 372 644 458 601 b 907 886 782 601 907 738 b 788 1042 907 978 860 1042 l 649 1042 b 435 672 640 914 606 672 b 317 811 367 672 317 711 b 371 1042 317 878 349 969 l 35 1042 b 118 521 90 833 118 678 z "},"L":{"ha":869,"x_min":0,"x_max":0,"o":"m 847 -1 b 708 281 867 56 868 281 b 421 46 544 281 540 46 b 282 422 315 46 282 235 b 429 1042 282 617 318 849 l 35 1042 b 118 521 90 833 118 678 b 35 -1 118 364 90 207 z "},"M":{"ha":1240,"x_min":0,"x_max":0,"o":"m 35 1042 b 35 0 146 626 146 415 l 429 0 b 283 606 318 193 283 425 b 393 875 283 735 300 875 b 494 721 446 875 494 831 b 454 360 494 621 454 481 b 619 146 454 236 497 146 b 786 358 742 146 786 235 b 744 721 786 479 744 619 b 846 875 744 832 794 875 b 957 606 940 875 957 735 b 811 0 957 425 922 193 l 1206 0 b 1206 1042 1094 415 1094 626 l 997 1042 b 697 739 771 1042 697 908 b 710 535 697 667 710 601 b 619 411 710 454 685 411 b 529 535 556 411 529 454 b 543 739 529 601 543 667 b 243 1042 543 908 469 1042 z "},"N":{"ha":1103,"x_min":0,"x_max":0,"o":"m 429 0 b 283 606 318 193 283 425 b 388 875 283 735 300 875 b 522 593 474 875 510 740 b 533 425 526 544 529 483 b 846 0 547 231 581 0 l 1068 0 b 1068 1042 957 415 957 626 l 674 1042 b 819 435 785 849 819 617 b 714 167 819 307 803 167 b 579 449 626 167 592 303 b 568 621 575 497 572 560 b 257 1042 556 811 519 1042 l 35 1042 b 35 0 146 626 146 415 z "},"O":{"ha":1014,"x_min":0,"x_max":0,"o":"m 28 521 b 507 -18 28 228 204 -18 b 986 521 810 -18 986 228 b 507 1060 986 814 810 1060 b 28 521 204 1060 28 814 z m 178 849 b 304 896 211 881 254 896 b 682 694 414 896 554 822 b 835 192 868 508 940 296 b 710 144 801 160 758 144 b 333 346 600 144 460 218 b 178 849 149 531 74 744 z "},"P":{"ha":903,"x_min":0,"x_max":0,"o":"m 457 996 b 610 790 560 996 610 894 b 457 579 610 685 560 579 b 317 790 364 579 317 685 b 457 996 317 894 364 996 z m 290 425 b 351 553 290 488 301 553 b 554 515 406 553 450 515 b 875 786 679 515 875 578 b 371 1042 875 1060 538 1042 l 35 1042 b 118 521 90 833 118 678 b 35 0 118 364 90 208 l 371 0 b 290 425 332 133 290 297 z "},"Q":{"ha":1014,"x_min":0,"x_max":0,"o":"m 407 -14 b 438 -35 425 -18 438 -22 b 408 -61 438 -47 425 -53 b 254 -200 350 -90 254 -119 b 263 -254 254 -217 257 -235 b 668 -435 375 -278 493 -435 b 881 -240 793 -435 881 -356 b 833 -114 881 -192 865 -149 b 522 -194 725 -165 610 -194 b 388 -140 456 -194 388 -178 b 424 -104 388 -119 406 -110 b 986 521 749 -4 986 151 b 507 1060 986 814 810 1060 b 28 521 204 1060 28 814 b 407 -14 28 244 167 49 z m 178 849 b 303 896 210 881 253 896 b 682 694 413 896 554 822 b 835 192 867 510 940 296 b 710 144 801 160 758 144 b 333 346 600 144 460 218 b 178 849 149 532 74 744 z "},"R":{"ha":922,"x_min":0,"x_max":0,"o":"m 35 1042 b 118 521 90 833 118 678 b 35 0 118 365 90 208 l 371 0 b 290 435 332 133 290 292 b 360 519 290 506 318 519 b 367 519 363 519 364 519 b 663 0 664 511 476 0 l 908 0 b 804 339 850 43 807 219 b 590 551 800 501 689 540 b 349 571 510 561 428 554 b 289 614 313 578 289 590 b 329 644 289 638 313 644 b 590 601 372 644 450 601 b 861 808 679 601 861 619 b 440 1042 861 1028 614 1042 b 371 1042 415 1042 392 1042 z m 451 996 b 596 814 542 996 596 904 b 458 668 596 735 554 668 b 317 819 360 668 317 739 b 451 996 317 908 367 996 z "},"S":{"ha":886,"x_min":0,"x_max":0,"o":"m 436 -18 b 858 311 689 -18 858 113 b 421 686 858 551 613 632 b 247 738 350 706 292 722 b 133 851 192 757 133 783 b 208 924 133 896 163 924 b 622 739 325 924 440 739 b 829 933 740 739 829 818 b 782 1060 829 982 813 1025 b 664 1026 742 1035 704 1026 b 394 1060 585 1026 501 1060 b 86 849 243 1060 83 994 b 238 692 88 754 157 717 b 406 639 293 675 351 661 b 597 367 529 588 599 507 b 315 51 596 179 472 51 b 111 204 204 51 111 122 b 256 335 111 279 174 335 b 436 190 339 335 408 265 b 538 356 476 204 538 260 b 299 592 538 486 432 592 b 28 301 146 592 28 465 b 436 -18 28 107 188 -18 z "},"T":{"ha":1154,"x_min":0,"x_max":0,"o":"m 169 761 b 386 982 325 761 274 958 b 403 983 392 983 397 983 b 504 711 479 983 504 864 b 408 0 504 446 431 83 l 744 0 b 650 711 724 83 650 446 b 751 983 650 864 675 983 b 768 982 757 983 763 983 b 985 761 881 960 829 761 b 1132 1042 1151 761 1150 985 l 22 1042 b 169 761 4 985 3 761 z "},"U":{"ha":939,"x_min":0,"x_max":0,"o":"m 68 774 b 51 450 68 665 51 558 b 469 -18 51 151 201 -18 b 888 450 736 -18 888 151 b 871 774 888 558 871 665 b 911 1042 871 879 883 958 l 557 1042 b 706 425 651 881 703 610 b 464 29 708 200 643 29 b 219 285 317 29 219 143 b 358 814 219 453 358 586 b 147 1060 358 958 303 1061 b 28 1042 108 1060 67 1053 b 68 774 57 958 68 879 z "},"V":{"ha":1181,"x_min":0,"x_max":0,"o":"m 7 1014 b 153 643 121 917 142 761 b 590 -18 179 368 253 -18 b 1028 643 928 -18 1004 368 b 1174 1014 1038 761 1060 917 b 1024 1060 1143 1033 1097 1060 b 760 757 894 1060 760 982 b 819 314 760 608 819 468 b 590 28 819 111 715 28 b 361 314 465 28 361 111 b 421 757 361 468 421 608 b 157 1060 421 982 286 1061 b 7 1014 83 1058 38 1033 z "},"W":{"ha":1533,"x_min":0,"x_max":0,"o":"m 156 599 b 563 -18 175 368 225 -18 b 767 65 640 -18 708 13 b 971 -18 825 13 893 -18 b 1376 599 1308 -18 1357 368 b 1526 1014 1390 761 1413 917 b 1376 1060 1496 1033 1449 1060 b 1113 756 1247 1060 1111 982 b 1161 353 1114 618 1161 488 b 964 64 1161 231 1114 64 b 819 122 911 64 863 85 b 974 661 917 250 974 449 b 767 1060 974 911 896 1060 b 560 661 638 1060 560 911 b 714 122 560 449 615 250 b 571 64 669 86 621 64 b 372 354 419 64 374 232 b 421 756 371 488 421 618 b 157 1060 421 982 286 1061 b 7 1014 83 1058 38 1033 b 156 599 121 917 142 761 z m 632 682 b 767 1014 632 868 678 1014 b 901 674 857 1014 901 865 b 767 181 901 463 849 288 b 632 682 682 296 632 483 z "},"X":{"ha":967,"x_min":0,"x_max":0,"o":"m 444 563 b 14 53 260 432 14 307 b 17 0 14 35 15 17 l 349 0 b 328 168 335 54 328 111 b 483 531 328 303 381 436 b 639 168 586 436 639 303 b 618 0 639 111 631 54 l 950 0 b 953 53 951 17 953 35 b 522 563 953 307 707 432 b 928 1042 672 674 979 792 l 719 1042 b 614 863 646 1042 604 992 b 508 610 625 719 575 663 b 483 590 500 603 492 597 b 457 610 474 597 465 603 b 351 863 393 664 340 719 b 247 1042 361 992 321 1042 l 39 1042 b 444 563 -12 792 293 674 z "},"Y":{"ha":939,"x_min":0,"x_max":0,"o":"m 68 774 b 443 317 68 507 147 317 b 485 317 458 317 472 317 b 533 297 514 317 532 314 b 333 196 536 251 404 238 b 218 0 275 161 224 88 l 596 0 b 576 153 578 49 568 104 b 793 469 596 269 731 378 b 911 1042 908 639 846 851 l 557 1042 b 658 772 599 971 632 874 b 425 364 718 543 613 364 b 250 513 319 364 250 419 b 358 851 250 640 358 701 b 147 1060 358 958 303 1060 b 28 1042 108 1060 67 1053 b 68 774 57 958 68 879 z "},"Z":{"ha":913,"x_min":0,"x_max":0,"o":"m 250 0 l 888 0 b 747 289 913 108 910 289 b 238 47 561 289 339 47 b 196 154 193 47 157 93 b 454 438 247 235 365 354 b 853 928 678 647 853 772 b 704 1060 853 1015 797 1060 b 308 1015 589 1060 440 1015 b 126 1060 242 1015 179 1026 b 79 933 94 1025 79 982 b 274 739 79 818 167 739 b 738 1007 468 739 613 1007 b 804 939 778 1007 804 979 b 618 742 804 865 719 789 b 126 497 483 679 279 647 b 14 247 56 426 14 349 b 250 0 14 96 106 0 z "},"a":{"ha":735,"x_min":0,"x_max":0,"o":"m 215 -18 b 438 158 332 -18 401 42 b 586 -18 444 40 493 -18 b 721 107 664 -18 718 38 b 594 301 635 86 594 149 b 600 474 594 360 600 417 b 328 713 600 632 489 713 b 43 519 167 713 43 632 b 175 396 43 442 101 396 b 286 429 210 396 249 406 b 236 532 256 449 236 489 b 382 661 236 615 310 661 b 494 561 443 661 494 628 b 28 143 494 357 28 404 b 215 -18 28 42 97 -18 z m 486 446 b 306 124 467 344 424 124 b 228 199 261 124 228 156 b 486 446 228 304 432 350 z "},"b":{"ha":775,"x_min":0,"x_max":0,"o":"m 21 1111 b 79 364 71 858 79 460 b 22 -12 79 154 49 46 b 74 -19 40 -17 57 -19 b 240 139 153 -19 218 31 b 454 -18 275 56 336 -18 b 747 356 625 -18 747 138 b 478 713 747 564 635 713 b 214 550 346 713 264 629 b 213 636 213 592 213 622 b 299 1111 213 833 236 944 z m 422 643 b 542 374 492 643 542 531 b 389 64 542 193 478 64 b 218 467 271 64 231 296 b 422 643 265 578 358 643 z "},"c":{"ha":653,"x_min":0,"x_max":0,"o":"m 353 -18 b 639 196 538 -18 639 74 b 585 304 639 242 625 290 b 379 174 558 224 489 174 b 85 421 225 174 83 272 b 225 603 86 519 149 603 b 483 485 315 603 371 485 b 622 626 565 485 622 549 b 592 713 622 660 611 689 b 517 690 565 696 542 690 b 342 713 467 690 415 713 b 28 354 157 713 28 567 b 353 -18 28 149 147 -18 z "},"d":{"ha":849,"x_min":0,"x_max":0,"o":"m 28 343 b 318 -18 28 133 149 -18 b 544 164 447 -18 510 72 b 700 -18 556 71 596 -18 b 835 107 774 -18 832 36 b 801 103 822 104 813 103 b 701 364 729 103 701 179 b 760 1111 701 460 708 858 l 482 1111 b 568 650 544 944 568 833 b 567 572 568 635 568 607 b 340 713 529 643 465 713 b 28 343 156 713 28 558 z m 235 354 b 393 643 235 524 300 643 b 561 479 461 643 525 581 b 385 69 549 304 508 69 b 235 354 296 69 235 190 z "},"e":{"ha":653,"x_min":0,"x_max":0,"o":"m 28 354 b 353 -18 28 149 147 -18 b 639 196 538 -18 639 74 b 585 304 639 242 625 290 b 379 174 558 224 489 174 b 86 397 233 174 97 263 b 336 310 140 342 233 310 b 626 514 496 310 626 388 b 363 713 626 632 515 713 b 28 354 157 713 28 567 z m 88 450 b 269 603 100 538 167 603 b 419 493 356 603 419 557 b 258 379 419 422 340 379 b 88 450 186 379 132 414 z "},"f":{"ha":617,"x_min":0,"x_max":0,"o":"m 7 714 l 7 639 b 121 651 39 644 78 649 b 142 318 129 549 142 435 b 93 0 142 208 131 100 l 360 0 b 276 656 360 221 329 442 b 529 639 371 656 464 650 l 529 714 b 267 697 461 703 364 697 b 238 886 251 763 238 824 b 357 1082 238 1007 283 1082 b 456 967 415 1082 456 1035 b 375 819 456 910 428 846 b 468 778 403 790 436 778 b 610 946 543 778 613 847 b 372 1129 607 1058 511 1129 b 113 792 199 1129 113 1018 b 117 701 113 763 114 733 b 7 714 75 704 38 708 z "},"g":{"ha":750,"x_min":0,"x_max":0,"o":"m 28 378 b 200 90 28 256 97 147 b 28 -111 122 58 28 4 b 222 -281 28 -212 101 -281 b 258 -279 233 -281 246 -281 b 565 -208 364 -268 479 -208 b 675 -260 604 -208 654 -224 b 568 1 751 -183 750 1 b 247 -87 454 1 315 -74 b 217 -92 236 -90 225 -92 b 143 -33 171 -92 143 -67 b 257 64 143 11 194 46 b 376 44 294 51 335 44 b 722 378 567 44 722 194 b 481 697 722 528 621 654 b 606 769 511 744 560 769 b 700 722 642 769 678 754 b 633 886 779 781 733 886 b 446 706 532 886 471 792 b 376 713 422 710 400 713 b 28 378 183 713 28 563 z m 169 586 b 238 614 188 604 211 614 b 472 474 297 614 378 568 b 583 171 610 336 643 231 b 515 143 565 153 542 143 b 281 283 456 143 375 189 b 169 586 143 421 110 526 z "},"h":{"ha":783,"x_min":0,"x_max":0,"o":"m 35 1111 b 101 547 76 938 101 742 b 42 0 101 357 78 168 l 278 0 b 225 269 229 131 225 244 b 433 632 225 386 303 632 b 533 513 496 632 532 575 b 474 168 536 414 474 293 b 617 -18 474 43 528 -18 b 769 33 664 -18 731 0 b 679 218 713 65 679 133 b 708 474 679 297 710 378 b 503 713 708 625 632 713 b 221 486 385 713 294 640 b 313 1111 222 738 240 857 z "},"i":{"ha":306,"x_min":0,"x_max":0,"o":"m 86 347 b 35 0 86 244 69 146 l 271 0 b 218 347 236 144 218 244 b 271 694 218 450 236 550 l 35 694 b 86 347 69 550 86 450 z m 11 918 b 151 776 11 840 74 776 b 294 918 231 776 294 840 b 151 1060 294 996 231 1060 b 11 918 74 1060 11 996 z "},"j":{"ha":307,"x_min":0,"x_max":0,"o":"m -239 -251 b -1 -435 -236 -364 -140 -435 b 258 -97 172 -435 258 -324 b 229 376 258 35 229 203 b 279 694 229 486 242 594 l 25 694 b 57 229 25 450 44 304 b 125 -172 88 46 119 -68 b 15 -387 132 -312 88 -387 b -85 -272 -43 -387 -85 -340 b -4 -125 -85 -215 -57 -151 b -97 -83 -32 -96 -65 -83 b -239 -251 -172 -83 -242 -153 z m 153 776 b 294 918 231 776 294 840 b 153 1060 294 996 231 1060 b 11 918 74 1060 11 996 b 153 776 11 840 74 776 z "},"k":{"ha":722,"x_min":0,"x_max":0,"o":"m 35 1111 b 101 547 76 938 101 742 b 42 0 101 357 78 168 l 278 0 b 225 267 229 131 225 244 b 282 339 225 310 238 339 b 422 210 349 339 410 281 b 525 0 439 114 453 0 l 708 0 b 622 193 668 28 651 79 b 457 371 590 317 550 356 b 257 390 392 382 307 381 b 215 425 232 396 215 404 b 247 451 215 446 233 451 b 447 424 279 451 354 424 b 667 621 551 424 667 460 b 582 713 667 633 665 713 l 483 713 b 313 486 482 638 421 486 b 222 664 269 486 222 511 b 313 1111 222 778 249 886 z "},"l":{"ha":319,"x_min":0,"x_max":0,"o":"m 285 0 b 225 547 249 168 225 357 b 285 1111 225 742 250 938 l 35 1111 b 94 547 69 938 94 742 b 35 0 94 357 71 168 z "},"m":{"ha":1294,"x_min":0,"x_max":0,"o":"m 146 347 b 94 0 146 244 128 146 l 331 0 b 278 279 282 131 278 244 b 486 632 278 386 356 632 b 585 513 549 632 585 575 b 526 168 585 414 526 293 b 669 -18 526 43 581 -18 b 822 33 717 -18 783 0 b 732 215 765 65 732 133 b 942 632 732 329 793 632 b 1043 513 1007 632 1043 575 b 985 168 1043 414 985 293 b 1128 -18 985 43 1039 -18 b 1281 33 1175 -18 1242 0 b 1190 218 1224 65 1190 133 b 1219 474 1190 297 1219 378 b 1007 713 1219 656 1118 713 b 757 531 875 713 810 633 b 549 713 738 667 647 713 b 286 503 406 713 340 619 b 146 713 289 629 233 713 b 14 588 75 713 17 658 b 51 593 28 590 40 593 b 146 347 122 593 146 525 z "},"n":{"ha":836,"x_min":0,"x_max":0,"o":"m 14 588 b 51 593 28 590 40 593 b 146 347 122 593 146 525 b 94 0 146 244 128 146 l 331 0 b 278 279 282 131 278 244 b 486 632 278 386 356 632 b 585 513 549 632 585 575 b 526 168 585 414 526 293 b 669 -18 526 43 581 -18 b 822 33 717 -18 783 0 b 732 218 765 65 732 133 b 761 474 732 297 761 378 b 547 713 761 656 660 713 b 286 503 406 713 340 619 b 146 713 289 629 233 713 b 14 588 75 713 17 658 z "},"o":{"ha":750,"x_min":0,"x_max":0,"o":"m 28 347 b 376 -18 28 146 183 -18 b 722 347 567 -18 722 146 b 376 713 722 549 567 713 b 28 347 183 713 28 549 z m 253 226 b 160 565 125 358 88 493 b 497 471 231 638 367 601 b 590 133 628 342 661 207 b 253 226 521 60 381 96 z "},"p":{"ha":849,"x_min":0,"x_max":0,"o":"m 147 331 b 89 -417 147 235 140 -164 l 367 -417 b 281 46 304 -250 281 -139 b 282 124 281 61 281 88 b 507 -18 319 51 383 -18 b 821 351 693 -18 821 136 b 531 713 821 561 700 714 b 304 531 401 711 338 624 b 149 714 292 625 253 714 b 14 588 75 714 17 658 b 47 592 26 590 38 592 b 147 331 119 592 147 515 z m 286 215 b 464 625 300 390 340 625 b 614 340 551 625 614 504 b 456 51 614 171 549 51 b 286 215 386 51 324 114 z "},"q":{"ha":775,"x_min":0,"x_max":0,"o":"m 297 -18 b 563 144 429 -18 511 65 b 564 58 564 104 564 72 b 478 -417 564 -137 540 -250 l 754 -417 b 697 331 704 -164 697 235 b 754 707 697 542 728 649 b 703 714 736 711 719 714 b 535 557 624 714 558 664 b 321 713 500 639 439 713 b 28 339 150 713 28 557 b 297 -18 28 131 140 -18 z m 386 631 b 557 228 506 631 544 399 b 353 51 511 117 417 51 b 233 321 283 51 233 164 b 386 631 233 501 297 631 z "},"r":{"ha":700,"x_min":0,"x_max":0,"o":"m 14 588 b 51 593 28 590 40 593 b 146 347 122 593 146 525 b 94 0 146 244 128 146 l 331 0 b 278 279 282 131 278 244 b 440 635 278 386 360 632 b 474 583 467 636 474 613 b 456 426 474 531 456 479 b 554 303 456 340 490 303 b 693 363 608 303 654 329 b 647 482 653 381 649 460 b 501 713 636 656 590 713 b 282 503 390 713 322 625 b 146 713 286 629 233 713 b 14 588 75 713 17 658 z "},"s":{"ha":649,"x_min":0,"x_max":0,"o":"m 318 -18 b 621 206 456 -18 621 47 b 367 440 621 350 488 406 b 114 565 240 476 118 492 b 165 621 113 599 135 621 b 456 483 243 621 336 483 b 599 626 539 483 599 549 b 567 713 599 660 589 689 b 481 690 540 696 511 690 b 276 713 418 690 350 713 b 68 560 175 713 65 668 b 283 390 71 447 186 436 b 414 186 374 347 414 283 b 288 28 414 108 378 28 b 165 169 219 28 165 76 b 275 349 165 257 211 315 b 176 381 242 369 207 381 b 28 208 94 381 28 314 b 318 -18 28 67 150 -18 z "},"t":{"ha":599,"x_min":0,"x_max":0,"o":"m 124 651 b 72 254 107 515 71 376 b 350 -18 74 75 158 -18 b 585 164 507 -18 582 63 b 465 308 588 251 535 308 b 378 281 438 308 408 300 b 442 129 418 246 442 183 b 357 28 442 74 417 28 b 251 553 256 28 211 156 b 264 656 254 583 257 614 b 529 639 363 656 461 650 l 529 714 b 269 697 463 703 365 697 b 319 960 279 756 293 836 l 97 960 b 129 701 131 878 136 790 b 7 714 83 704 42 708 l 7 639 b 124 651 40 644 81 649 z "},"u":{"ha":829,"x_min":0,"x_max":0,"o":"m 97 476 b 68 221 97 397 68 318 b 281 -18 68 40 169 -18 b 543 192 424 -18 489 75 b 683 -18 540 65 596 -18 b 815 107 754 -18 813 36 b 782 103 803 104 792 103 b 693 276 718 103 693 160 b 719 521 693 383 714 458 b 588 713 731 644 681 713 b 453 661 539 713 492 694 b 543 428 525 619 543 493 b 344 63 543 303 476 63 b 243 182 281 63 243 119 b 303 526 243 281 303 401 b 160 713 303 651 249 713 b 7 661 111 713 46 694 b 97 476 63 629 97 561 z "},"v":{"ha":811,"x_min":0,"x_max":0,"o":"m 7 661 b 111 279 111 578 94 399 b 406 -18 136 96 211 -18 b 701 279 601 -18 676 96 b 804 661 718 399 701 578 b 682 713 767 694 728 713 b 518 526 581 713 518 628 b 556 215 518 447 556 319 b 406 28 556 121 525 28 b 257 215 288 28 257 121 b 293 526 257 319 293 447 b 131 713 293 628 232 713 b 7 661 83 713 46 694 z "},"w":{"ha":1014,"x_min":0,"x_max":0,"o":"m 7 661 b 61 383 82 601 67 489 b 274 -18 51 189 75 -18 b 507 94 365 -18 444 26 b 739 -18 568 26 647 -18 b 953 386 936 -18 961 189 b 1007 661 949 489 932 601 b 871 713 968 694 917 713 b 735 535 783 713 735 649 b 767 228 735 443 767 319 b 661 57 767 126 728 57 b 536 132 619 57 575 85 b 643 475 604 225 643 350 b 507 713 643 618 590 713 b 371 475 424 713 371 618 b 476 133 371 350 410 225 b 351 57 438 85 393 57 b 247 226 285 57 247 126 b 279 535 247 319 279 443 b 143 713 279 649 231 713 b 7 661 97 713 46 694 z m 429 468 b 507 667 429 586 463 667 b 585 469 551 667 585 586 b 507 175 585 354 553 250 b 429 468 461 250 429 354 z "},"x":{"ha":707,"x_min":0,"x_max":0,"o":"m 107 488 b 311 361 163 435 246 400 b 14 35 169 267 14 189 b 15 0 14 24 14 11 l 251 0 b 239 107 243 35 239 71 b 353 335 239 196 282 282 b 468 107 424 282 468 196 b 456 0 468 71 463 35 l 690 0 b 693 35 692 11 693 24 b 394 361 693 189 536 267 b 600 488 460 400 543 435 b 679 694 658 540 696 618 l 532 694 b 461 565 482 694 454 647 b 353 389 469 463 424 433 b 246 565 283 433 238 463 b 175 694 253 647 224 694 l 26 694 b 107 488 11 618 49 542 z "},"y":{"ha":811,"x_min":0,"x_max":0,"o":"m 7 661 b 392 -18 207 501 26 -18 b 526 18 453 -18 496 -3 b 535 21 529 19 532 21 b 542 11 539 21 542 18 b 326 -247 542 -136 492 -247 b 143 -143 229 -247 174 -208 b 60 -292 89 -174 60 -233 b 203 -435 60 -365 94 -435 b 690 233 431 -435 642 -133 b 804 661 713 399 701 578 b 681 713 767 694 728 713 b 524 474 576 713 524 631 b 539 211 524 368 539 274 b 408 28 539 94 488 28 b 293 511 225 28 293 388 b 131 713 293 628 232 713 b 7 661 83 713 46 694 z "},"z":{"ha":669,"x_min":0,"x_max":0,"o":"m 14 165 b 172 0 14 64 75 0 l 643 0 b 533 208 660 72 685 208 b 182 47 368 208 251 47 b 153 90 158 47 144 67 b 375 329 171 140 300 267 b 622 621 439 382 622 521 b 519 713 622 651 606 713 b 229 683 460 713 336 683 b 90 713 175 683 125 690 b 58 624 68 689 58 660 b 192 476 58 550 103 476 b 528 667 333 476 442 667 b 564 624 553 667 564 650 b 311 453 564 515 396 485 b 14 165 218 418 14 379 z "}}}
